<mxfile host="Electron" agent="Mozilla/5.0 (Macintosh; Intel Mac OS X 10_15_7) AppleWebKit/537.36 (KHTML, like Gecko) draw.io/24.7.17 Chrome/128.0.6613.36 Electron/32.0.1 Safari/537.36" version="24.7.17">
  <diagram name="Expression Hierarchy" id="B6yHBA0yNes8BWCViT4E">
    <mxGraphModel dx="1290" dy="888" grid="1" gridSize="10" guides="1" tooltips="1" connect="1" arrows="1" fold="1" page="1" pageScale="1" pageWidth="827" pageHeight="1169" math="0" shadow="0">
      <root>
        <mxCell id="0" />
        <mxCell id="1" parent="0" />
        <mxCell id="3NF6qjgnj08wNpHQOnpI-1" value="&lt;p style=&quot;margin:0px;margin-top:4px;text-align:center;&quot;&gt;&lt;i&gt;&amp;lt;&amp;lt;Interface&amp;gt;&amp;gt;&lt;/i&gt;&lt;br&gt;&lt;b&gt;AudlangExpression&lt;/b&gt;&lt;/p&gt;&lt;p style=&quot;margin:0px;margin-left:4px;&quot;&gt;&lt;br&gt;&lt;/p&gt;" style="verticalAlign=top;align=left;overflow=fill;html=1;whiteSpace=wrap;fillColor=#dae8fc;strokeColor=#6c8ebf;" parent="1" vertex="1">
          <mxGeometry x="269" y="299" width="190" height="40" as="geometry" />
        </mxCell>
        <mxCell id="3NF6qjgnj08wNpHQOnpI-3" value="&lt;p style=&quot;margin:0px;margin-top:4px;text-align:center;&quot;&gt;&lt;i&gt;&amp;lt;&amp;lt;Interface&amp;gt;&amp;gt;&lt;/i&gt;&lt;br&gt;&lt;b&gt;CoreExpression&lt;/b&gt;&lt;/p&gt;" style="verticalAlign=top;align=left;overflow=fill;html=1;whiteSpace=wrap;fillColor=#dae8fc;strokeColor=#6c8ebf;" parent="1" vertex="1">
          <mxGeometry x="269" y="400" width="190" height="40" as="geometry" />
        </mxCell>
        <mxCell id="3NF6qjgnj08wNpHQOnpI-7" value="" style="endArrow=block;endSize=16;endFill=0;html=1;rounded=0;exitX=0.5;exitY=0;exitDx=0;exitDy=0;entryX=0.5;entryY=1;entryDx=0;entryDy=0;" parent="1" target="3NF6qjgnj08wNpHQOnpI-1" edge="1" source="3NF6qjgnj08wNpHQOnpI-3">
          <mxGeometry x="-0.8611" y="21" width="160" relative="1" as="geometry">
            <mxPoint x="421" y="400" as="sourcePoint" />
            <mxPoint x="360" y="330" as="targetPoint" />
            <mxPoint as="offset" />
          </mxGeometry>
        </mxCell>
        <mxCell id="SRTB3e_779GIYS2lEAyd-28" value="extends" style="edgeLabel;html=1;align=center;verticalAlign=middle;resizable=0;points=[];" vertex="1" connectable="0" parent="3NF6qjgnj08wNpHQOnpI-7">
          <mxGeometry x="-0.8353" y="1" relative="1" as="geometry">
            <mxPoint x="-25" y="-6" as="offset" />
          </mxGeometry>
        </mxCell>
        <mxCell id="3NF6qjgnj08wNpHQOnpI-12" style="rounded=0;orthogonalLoop=1;jettySize=auto;html=1;entryX=1;entryY=0.5;entryDx=0;entryDy=0;endArrow=none;endFill=0;dashed=1;" parent="1" source="3NF6qjgnj08wNpHQOnpI-11" target="3NF6qjgnj08wNpHQOnpI-3" edge="1">
          <mxGeometry relative="1" as="geometry" />
        </mxCell>
        <mxCell id="3NF6qjgnj08wNpHQOnpI-11" value="&lt;span style=&quot;font-size: 10px;&quot;&gt;Interface&amp;nbsp; to be implemented by all internal representation layer expressions,&lt;/span&gt;&lt;div&gt;&lt;span style=&quot;font-size: 10px;&quot;&gt;inherits from AudlangExpression&lt;/span&gt;&lt;/div&gt;" style="shape=note;whiteSpace=wrap;html=1;backgroundOutline=1;darkOpacity=0.05;size=13;labelBackgroundColor=none;fillColor=#FFFFCC;gradientColor=none;align=left;" parent="1" vertex="1">
          <mxGeometry x="490" y="400" width="190" height="50" as="geometry" />
        </mxCell>
        <mxCell id="3NF6qjgnj08wNpHQOnpI-13" value="&lt;p style=&quot;margin:0px;margin-top:4px;text-align:center;&quot;&gt;&lt;i&gt;&amp;lt;&amp;lt;record&amp;gt;&amp;gt;&lt;/i&gt;&lt;br&gt;&lt;b&gt;MatchExpression&lt;/b&gt;&lt;/p&gt;&lt;hr size=&quot;1&quot; style=&quot;border-style:solid;&quot;&gt;&lt;p style=&quot;margin:0px;margin-left:4px;&quot;&gt;+ argName: String&lt;br&gt;+ operator: MatchOperator&lt;/p&gt;" style="verticalAlign=top;align=left;overflow=fill;html=1;whiteSpace=wrap;fillColor=#ffe6cc;strokeColor=#d79b00;" parent="1" vertex="1">
          <mxGeometry x="19" y="585" width="190" height="80" as="geometry" />
        </mxCell>
        <mxCell id="3NF6qjgnj08wNpHQOnpI-14" value="" style="endArrow=block;dashed=1;endFill=0;endSize=12;html=1;rounded=0;exitX=0.742;exitY=-0.008;exitDx=0;exitDy=0;entryX=0.25;entryY=1;entryDx=0;entryDy=0;exitPerimeter=0;" parent="1" source="3NF6qjgnj08wNpHQOnpI-13" target="SRTB3e_779GIYS2lEAyd-32" edge="1">
          <mxGeometry width="160" relative="1" as="geometry">
            <mxPoint x="269" y="460" as="sourcePoint" />
            <mxPoint x="369" y="440" as="targetPoint" />
            <Array as="points">
              <mxPoint x="160" y="570" />
              <mxPoint x="228" y="570" />
            </Array>
          </mxGeometry>
        </mxCell>
        <mxCell id="3NF6qjgnj08wNpHQOnpI-15" value="&lt;span style=&quot;font-size: 10px;&quot;&gt;Records have been chosen to simplify the implementation. All are &lt;b&gt;deeply immutable&lt;/b&gt;, guaranteed by the record constructors. Like PlExpressions, all Core expressions delegate equals(), hashCode() and compareTo() to their string representations.&lt;/span&gt;" style="shape=note;whiteSpace=wrap;html=1;backgroundOutline=1;darkOpacity=0.05;size=13;labelBackgroundColor=none;fillColor=#FFFFCC;gradientColor=none;align=left;" parent="1" vertex="1">
          <mxGeometry x="320" y="800" width="360" height="81" as="geometry" />
        </mxCell>
        <mxCell id="3NF6qjgnj08wNpHQOnpI-17" value="&lt;p style=&quot;margin:0px;margin-top:4px;text-align:center;&quot;&gt;&lt;i&gt;&amp;lt;&amp;lt;record&amp;gt;&amp;gt;&lt;/i&gt;&lt;br&gt;&lt;b&gt;NegationExpression&lt;/b&gt;&lt;/p&gt;" style="verticalAlign=top;align=left;overflow=fill;html=1;whiteSpace=wrap;fillColor=#ffe6cc;strokeColor=#d79b00;" parent="1" vertex="1">
          <mxGeometry x="19" y="706" width="190" height="40" as="geometry" />
        </mxCell>
        <mxCell id="3NF6qjgnj08wNpHQOnpI-19" value="" style="endArrow=block;dashed=1;endFill=0;endSize=12;html=1;rounded=0;exitX=0.788;exitY=0;exitDx=0;exitDy=0;entryX=0.5;entryY=1;entryDx=0;entryDy=0;exitPerimeter=0;" parent="1" source="3NF6qjgnj08wNpHQOnpI-17" edge="1" target="SRTB3e_779GIYS2lEAyd-32">
          <mxGeometry width="160" relative="1" as="geometry">
            <mxPoint x="204" y="550" as="sourcePoint" />
            <mxPoint x="409" y="440" as="targetPoint" />
            <Array as="points">
              <mxPoint x="169" y="690" />
              <mxPoint x="265" y="690" />
            </Array>
          </mxGeometry>
        </mxCell>
        <mxCell id="3NF6qjgnj08wNpHQOnpI-20" value="&lt;p style=&quot;margin:0px;margin-top:4px;text-align:center;&quot;&gt;&lt;i&gt;&amp;lt;&amp;lt;record&amp;gt;&amp;gt;&lt;/i&gt;&lt;br&gt;&lt;b&gt;Operand&lt;/b&gt;&lt;/p&gt;&lt;hr size=&quot;1&quot; style=&quot;border-style:solid;&quot;&gt;&lt;p style=&quot;margin:0px;margin-left:4px;&quot;&gt;+ value: String&lt;br&gt;+ isReference: boolean&lt;/p&gt;" style="verticalAlign=top;align=left;overflow=fill;html=1;whiteSpace=wrap;fillColor=#ffe6cc;strokeColor=#d79b00;" parent="1" vertex="1">
          <mxGeometry x="19" y="400" width="190" height="90" as="geometry" />
        </mxCell>
        <mxCell id="3NF6qjgnj08wNpHQOnpI-22" value="&lt;p style=&quot;margin:0px;margin-top:4px;text-align:center;&quot;&gt;&lt;i&gt;&amp;lt;&amp;lt;Interface&amp;gt;&amp;gt;&lt;/i&gt;&lt;br&gt;&lt;b&gt;AudlangFormattable&lt;/b&gt;&lt;/p&gt;&lt;p style=&quot;margin:0px;margin-left:4px;&quot;&gt;&lt;br&gt;&lt;/p&gt;" style="verticalAlign=top;align=left;overflow=fill;html=1;whiteSpace=wrap;" parent="1" vertex="1">
          <mxGeometry x="19" y="299" width="191" height="40" as="geometry" />
        </mxCell>
        <mxCell id="3NF6qjgnj08wNpHQOnpI-23" value="" style="endArrow=block;dashed=1;endFill=0;endSize=12;html=1;rounded=0;entryX=0.5;entryY=1;entryDx=0;entryDy=0;exitX=0.5;exitY=0;exitDx=0;exitDy=0;" parent="1" source="3NF6qjgnj08wNpHQOnpI-20" target="3NF6qjgnj08wNpHQOnpI-22" edge="1">
          <mxGeometry width="160" relative="1" as="geometry">
            <mxPoint x="629" y="285" as="sourcePoint" />
            <mxPoint x="559" y="320" as="targetPoint" />
          </mxGeometry>
        </mxCell>
        <mxCell id="3NF6qjgnj08wNpHQOnpI-24" value="&lt;p style=&quot;margin:0px;margin-top:4px;text-align:center;&quot;&gt;&lt;i&gt;&amp;lt;&amp;lt;record&amp;gt;&amp;gt;&lt;/i&gt;&lt;br&gt;&lt;b&gt;SpecialSetExpression&lt;/b&gt;&lt;/p&gt;&lt;hr size=&quot;1&quot; style=&quot;border-style:solid;&quot;&gt;&lt;p style=&quot;margin:0px;margin-left:4px;&quot;&gt;+ setType: SpecialSetType&lt;br&gt;&lt;br&gt;&lt;/p&gt;" style="verticalAlign=top;align=left;overflow=fill;html=1;whiteSpace=wrap;fillColor=#ffe6cc;strokeColor=#d79b00;" parent="1" vertex="1">
          <mxGeometry x="20" y="801" width="190" height="80" as="geometry" />
        </mxCell>
        <mxCell id="3NF6qjgnj08wNpHQOnpI-25" value="&lt;span style=&quot;font-size: 10px;&quot;&gt;&amp;lt;ALL&amp;gt; vs. &amp;lt;NONE&amp;gt;&lt;/span&gt;" style="shape=note;whiteSpace=wrap;html=1;backgroundOutline=1;darkOpacity=0.05;size=13;labelBackgroundColor=none;fillColor=#FFFFCC;gradientColor=none;align=left;" parent="1" vertex="1">
          <mxGeometry x="20" y="770" width="110" height="20" as="geometry" />
        </mxCell>
        <mxCell id="3NF6qjgnj08wNpHQOnpI-26" style="rounded=0;orthogonalLoop=1;jettySize=auto;html=1;entryX=0.5;entryY=0;entryDx=0;entryDy=0;endArrow=none;endFill=0;dashed=1;exitX=0.5;exitY=1;exitDx=0;exitDy=0;exitPerimeter=0;" parent="1" source="3NF6qjgnj08wNpHQOnpI-25" target="3NF6qjgnj08wNpHQOnpI-24" edge="1">
          <mxGeometry relative="1" as="geometry" />
        </mxCell>
        <mxCell id="3NF6qjgnj08wNpHQOnpI-27" value="" style="endArrow=block;dashed=1;endFill=0;endSize=12;html=1;rounded=0;exitX=0.75;exitY=0;exitDx=0;exitDy=0;entryX=0.5;entryY=1;entryDx=0;entryDy=0;" parent="1" source="3NF6qjgnj08wNpHQOnpI-24" target="3NF6qjgnj08wNpHQOnpI-3" edge="1">
          <mxGeometry width="160" relative="1" as="geometry">
            <mxPoint x="195" y="680" as="sourcePoint" />
            <mxPoint x="369" y="440" as="targetPoint" />
            <Array as="points">
              <mxPoint x="163" y="770" />
              <mxPoint x="364" y="770" />
            </Array>
          </mxGeometry>
        </mxCell>
        <mxCell id="3NF6qjgnj08wNpHQOnpI-28" value="&lt;p style=&quot;margin:0px;margin-top:4px;text-align:center;&quot;&gt;&lt;i&gt;&amp;lt;&amp;lt;record&amp;gt;&amp;gt;&lt;/i&gt;&lt;br&gt;&lt;b&gt;CombinedExpression&lt;/b&gt;&lt;/p&gt;&lt;hr size=&quot;1&quot; style=&quot;border-style:solid;&quot;&gt;&lt;p style=&quot;margin:0px;margin-left:4px;&quot;&gt;+ combiType: CombinedExpressionType&lt;br&gt;&lt;/p&gt;&lt;p style=&quot;margin:0px;margin-left:4px;&quot;&gt;&lt;br&gt;&lt;/p&gt;" style="verticalAlign=top;align=left;overflow=fill;html=1;whiteSpace=wrap;fillColor=#ffe6cc;strokeColor=#d79b00;" parent="1" vertex="1">
          <mxGeometry x="410" y="585" width="230" height="80" as="geometry" />
        </mxCell>
        <mxCell id="3NF6qjgnj08wNpHQOnpI-29" value="" style="endArrow=block;dashed=1;endFill=0;endSize=12;html=1;rounded=0;exitX=0.25;exitY=0;exitDx=0;exitDy=0;entryX=0.7;entryY=1.008;entryDx=0;entryDy=0;entryPerimeter=0;" parent="1" source="3NF6qjgnj08wNpHQOnpI-28" target="3NF6qjgnj08wNpHQOnpI-3" edge="1">
          <mxGeometry width="160" relative="1" as="geometry">
            <mxPoint x="261" y="690" as="sourcePoint" />
            <mxPoint x="383" y="440" as="targetPoint" />
            <Array as="points">
              <mxPoint x="468" y="520" />
              <mxPoint x="402" y="520" />
            </Array>
          </mxGeometry>
        </mxCell>
        <mxCell id="3NF6qjgnj08wNpHQOnpI-30" value="&lt;span style=&quot;font-size: 10px;&quot;&gt;AND vs. OR&lt;/span&gt;" style="shape=note;whiteSpace=wrap;html=1;backgroundOutline=1;darkOpacity=0.05;size=13;labelBackgroundColor=none;fillColor=#FFFFCC;gradientColor=none;align=center;" parent="1" vertex="1">
          <mxGeometry x="580" y="550" width="100" height="20" as="geometry" />
        </mxCell>
        <mxCell id="3NF6qjgnj08wNpHQOnpI-31" style="rounded=0;orthogonalLoop=1;jettySize=auto;html=1;entryX=0.75;entryY=0;entryDx=0;entryDy=0;endArrow=none;endFill=0;dashed=1;" parent="1" source="3NF6qjgnj08wNpHQOnpI-30" target="3NF6qjgnj08wNpHQOnpI-28" edge="1">
          <mxGeometry relative="1" as="geometry" />
        </mxCell>
        <mxCell id="SRTB3e_779GIYS2lEAyd-1" value="" style="endArrow=diamondThin;endFill=0;endSize=24;html=1;rounded=0;entryX=0.5;entryY=0;entryDx=0;entryDy=0;strokeWidth=2;" edge="1" parent="1" target="3NF6qjgnj08wNpHQOnpI-28">
          <mxGeometry width="160" relative="1" as="geometry">
            <mxPoint x="426" y="439" as="sourcePoint" />
            <mxPoint x="490" y="570" as="targetPoint" />
            <Array as="points">
              <mxPoint x="426" y="490" />
              <mxPoint x="525" y="490" />
            </Array>
          </mxGeometry>
        </mxCell>
        <mxCell id="SRTB3e_779GIYS2lEAyd-5" value="members" style="edgeLabel;html=1;align=center;verticalAlign=middle;resizable=0;points=[];" vertex="1" connectable="0" parent="SRTB3e_779GIYS2lEAyd-1">
          <mxGeometry x="0.6624" relative="1" as="geometry">
            <mxPoint x="30" y="-3" as="offset" />
          </mxGeometry>
        </mxCell>
        <mxCell id="SRTB3e_779GIYS2lEAyd-6" value="2 .. *" style="edgeLabel;html=1;align=center;verticalAlign=middle;resizable=0;points=[];" vertex="1" connectable="0" parent="SRTB3e_779GIYS2lEAyd-1">
          <mxGeometry x="-0.9416" relative="1" as="geometry">
            <mxPoint x="14" y="5" as="offset" />
          </mxGeometry>
        </mxCell>
        <mxCell id="SRTB3e_779GIYS2lEAyd-17" style="rounded=0;orthogonalLoop=1;jettySize=auto;html=1;exitX=0.5;exitY=0;exitDx=0;exitDy=0;endArrow=open;endFill=0;strokeWidth=2;entryX=0.5;entryY=1;entryDx=0;entryDy=0;" edge="1" parent="1" source="3NF6qjgnj08wNpHQOnpI-17" target="3NF6qjgnj08wNpHQOnpI-13">
          <mxGeometry relative="1" as="geometry">
            <mxPoint x="320" y="505" as="sourcePoint" />
            <mxPoint x="320" y="440" as="targetPoint" />
          </mxGeometry>
        </mxCell>
        <mxCell id="SRTB3e_779GIYS2lEAyd-18" value="delegate" style="edgeLabel;html=1;align=center;verticalAlign=middle;resizable=0;points=[];" vertex="1" connectable="0" parent="SRTB3e_779GIYS2lEAyd-17">
          <mxGeometry x="-0.3978" relative="1" as="geometry">
            <mxPoint x="-26" y="2" as="offset" />
          </mxGeometry>
        </mxCell>
        <mxCell id="SRTB3e_779GIYS2lEAyd-29" style="rounded=0;orthogonalLoop=1;jettySize=auto;html=1;entryX=0.5;entryY=1;entryDx=0;entryDy=0;endArrow=open;endFill=0;strokeWidth=2;exitX=0.5;exitY=0;exitDx=0;exitDy=0;" edge="1" parent="1" source="3NF6qjgnj08wNpHQOnpI-13" target="3NF6qjgnj08wNpHQOnpI-20">
          <mxGeometry relative="1" as="geometry">
            <mxPoint x="110" y="540" as="sourcePoint" />
            <mxPoint x="110" y="520" as="targetPoint" />
          </mxGeometry>
        </mxCell>
        <mxCell id="SRTB3e_779GIYS2lEAyd-30" value="operand" style="edgeLabel;html=1;align=center;verticalAlign=middle;resizable=0;points=[];" vertex="1" connectable="0" parent="SRTB3e_779GIYS2lEAyd-29">
          <mxGeometry x="-0.3978" relative="1" as="geometry">
            <mxPoint x="-26" y="16" as="offset" />
          </mxGeometry>
        </mxCell>
        <mxCell id="SRTB3e_779GIYS2lEAyd-31" value="0 .. 1" style="edgeLabel;html=1;align=center;verticalAlign=middle;resizable=0;points=[];" vertex="1" connectable="0" parent="SRTB3e_779GIYS2lEAyd-29">
          <mxGeometry x="0.64" relative="1" as="geometry">
            <mxPoint x="19" as="offset" />
          </mxGeometry>
        </mxCell>
        <mxCell id="SRTB3e_779GIYS2lEAyd-32" value="&lt;p style=&quot;margin:0px;margin-top:4px;text-align:center;&quot;&gt;&lt;i&gt;&amp;lt;&amp;lt;Interface&amp;gt;&amp;gt;&lt;/i&gt;&lt;br&gt;&lt;b&gt;SimpleExpression&lt;/b&gt;&lt;/p&gt;" style="verticalAlign=top;align=left;overflow=fill;html=1;whiteSpace=wrap;fillColor=#dae8fc;strokeColor=#6c8ebf;" vertex="1" parent="1">
          <mxGeometry x="190" y="504" width="150" height="40" as="geometry" />
        </mxCell>
        <mxCell id="SRTB3e_779GIYS2lEAyd-33" value="" style="endArrow=block;dashed=1;endFill=0;endSize=12;html=1;rounded=0;" edge="1" parent="1">
          <mxGeometry width="160" relative="1" as="geometry">
            <mxPoint x="300" y="503" as="sourcePoint" />
            <mxPoint x="300" y="441" as="targetPoint" />
          </mxGeometry>
        </mxCell>
      </root>
    </mxGraphModel>
  </diagram>
</mxfile>
